<mxfile host="Electron" modified="2023-06-28T17:15:58.569Z" agent="Mozilla/5.0 (Windows NT 10.0; Win64; x64) AppleWebKit/537.36 (KHTML, like Gecko) draw.io/21.5.1 Chrome/112.0.5615.204 Electron/24.6.0 Safari/537.36" etag="WOpWc_SMo-3CJI5ZwWRm" version="21.5.1" type="device">
  <diagram name="Pagina-1" id="NwEFwQp6oll7bKmzDPxc">
    <mxGraphModel dx="4014" dy="1876" grid="1" gridSize="10" guides="1" tooltips="1" connect="1" arrows="1" fold="1" page="1" pageScale="1" pageWidth="827" pageHeight="1169" math="0" shadow="0">
      <root>
        <mxCell id="0" />
        <mxCell id="1" parent="0" />
        <mxCell id="NEaU2xAnRH2WTIYvXyxO-2" value="Buy item" style="text;html=1;align=center;verticalAlign=middle;resizable=0;points=[];autosize=1;strokeColor=none;fillColor=none;" vertex="1" parent="1">
          <mxGeometry x="145" y="80" width="70" height="30" as="geometry" />
        </mxCell>
        <mxCell id="NEaU2xAnRH2WTIYvXyxO-5" value="" style="ellipse;html=1;shape=endState;fillColor=#000000;strokeColor=#000000;" vertex="1" parent="1">
          <mxGeometry x="-560" y="560" width="40" height="40" as="geometry" />
        </mxCell>
        <mxCell id="NEaU2xAnRH2WTIYvXyxO-6" value="" style="ellipse;whiteSpace=wrap;html=1;aspect=fixed;fillColor=#000000;" vertex="1" parent="1">
          <mxGeometry x="160" y="120" width="40" height="40" as="geometry" />
        </mxCell>
        <mxCell id="NEaU2xAnRH2WTIYvXyxO-7" value="" style="endArrow=classic;html=1;rounded=0;exitX=0.5;exitY=1;exitDx=0;exitDy=0;entryX=0.5;entryY=0;entryDx=0;entryDy=0;" edge="1" parent="1" source="NEaU2xAnRH2WTIYvXyxO-6" target="NEaU2xAnRH2WTIYvXyxO-8">
          <mxGeometry width="50" height="50" relative="1" as="geometry">
            <mxPoint x="120" y="210" as="sourcePoint" />
            <mxPoint x="180" y="210" as="targetPoint" />
          </mxGeometry>
        </mxCell>
        <mxCell id="NEaU2xAnRH2WTIYvXyxO-8" value="Select item to buy" style="rounded=0;whiteSpace=wrap;html=1;" vertex="1" parent="1">
          <mxGeometry x="120" y="200" width="120" height="60" as="geometry" />
        </mxCell>
        <mxCell id="NEaU2xAnRH2WTIYvXyxO-9" value="" style="rhombus;whiteSpace=wrap;html=1;" vertex="1" parent="1">
          <mxGeometry x="160" y="300" width="40" height="40" as="geometry" />
        </mxCell>
        <mxCell id="NEaU2xAnRH2WTIYvXyxO-10" value="" style="endArrow=classic;html=1;rounded=0;exitX=0.5;exitY=1;exitDx=0;exitDy=0;entryX=0.5;entryY=0;entryDx=0;entryDy=0;" edge="1" parent="1" source="NEaU2xAnRH2WTIYvXyxO-8" target="NEaU2xAnRH2WTIYvXyxO-9">
          <mxGeometry width="50" height="50" relative="1" as="geometry">
            <mxPoint x="179.8" y="270" as="sourcePoint" />
            <mxPoint x="179.8" y="310" as="targetPoint" />
          </mxGeometry>
        </mxCell>
        <mxCell id="NEaU2xAnRH2WTIYvXyxO-11" value="" style="endArrow=classic;html=1;rounded=0;exitX=0;exitY=0.5;exitDx=0;exitDy=0;entryX=0.5;entryY=0;entryDx=0;entryDy=0;" edge="1" parent="1" source="NEaU2xAnRH2WTIYvXyxO-9" target="NEaU2xAnRH2WTIYvXyxO-46">
          <mxGeometry width="50" height="50" relative="1" as="geometry">
            <mxPoint x="100" y="290" as="sourcePoint" />
            <mxPoint x="-120" y="360" as="targetPoint" />
            <Array as="points">
              <mxPoint x="-120" y="320" />
            </Array>
          </mxGeometry>
        </mxCell>
        <mxCell id="NEaU2xAnRH2WTIYvXyxO-12" value="[Item available for immediate purchase]" style="edgeLabel;html=1;align=center;verticalAlign=middle;resizable=0;points=[];" vertex="1" connectable="0" parent="NEaU2xAnRH2WTIYvXyxO-11">
          <mxGeometry x="-0.2677" y="1" relative="1" as="geometry">
            <mxPoint x="24" y="-11" as="offset" />
          </mxGeometry>
        </mxCell>
        <mxCell id="NEaU2xAnRH2WTIYvXyxO-13" value="" style="endArrow=classic;html=1;rounded=0;exitX=1;exitY=0.5;exitDx=0;exitDy=0;entryX=0.5;entryY=0;entryDx=0;entryDy=0;" edge="1" parent="1" source="NEaU2xAnRH2WTIYvXyxO-9" target="NEaU2xAnRH2WTIYvXyxO-80">
          <mxGeometry width="50" height="50" relative="1" as="geometry">
            <mxPoint x="170" y="330" as="sourcePoint" />
            <mxPoint x="480" y="380" as="targetPoint" />
            <Array as="points">
              <mxPoint x="480" y="320" />
            </Array>
          </mxGeometry>
        </mxCell>
        <mxCell id="NEaU2xAnRH2WTIYvXyxO-14" value="[Item available for auction]" style="edgeLabel;html=1;align=center;verticalAlign=middle;resizable=0;points=[];" vertex="1" connectable="0" parent="NEaU2xAnRH2WTIYvXyxO-13">
          <mxGeometry x="-0.2677" y="1" relative="1" as="geometry">
            <mxPoint x="-17" y="-11" as="offset" />
          </mxGeometry>
        </mxCell>
        <mxCell id="NEaU2xAnRH2WTIYvXyxO-16" value="* Enter the data for the purchase&lt;br&gt;" style="rounded=0;whiteSpace=wrap;html=1;" vertex="1" parent="1">
          <mxGeometry x="-180" y="540" width="120" height="60" as="geometry" />
        </mxCell>
        <mxCell id="NEaU2xAnRH2WTIYvXyxO-17" value="&lt;span style=&quot;color: rgb(0, 0, 0); font-family: Helvetica; font-size: 12px; font-style: normal; font-variant-ligatures: normal; font-variant-caps: normal; font-weight: 400; letter-spacing: normal; orphans: 2; text-align: center; text-indent: 0px; text-transform: none; widows: 2; word-spacing: 0px; -webkit-text-stroke-width: 0px; background-color: rgb(251, 251, 251); text-decoration-thickness: initial; text-decoration-style: initial; text-decoration-color: initial; float: none; display: inline !important;&quot;&gt;Enter the data for the purchase&lt;br&gt;&lt;/span&gt;" style="text;whiteSpace=wrap;html=1;" vertex="1" parent="1">
          <mxGeometry x="-625" y="80" width="170" height="30" as="geometry" />
        </mxCell>
        <mxCell id="NEaU2xAnRH2WTIYvXyxO-18" value="Enter address for the shipment" style="rounded=0;whiteSpace=wrap;html=1;" vertex="1" parent="1">
          <mxGeometry x="-455" y="260" width="120" height="60" as="geometry" />
        </mxCell>
        <mxCell id="NEaU2xAnRH2WTIYvXyxO-19" value="" style="ellipse;whiteSpace=wrap;html=1;aspect=fixed;fillColor=#000000;" vertex="1" parent="1">
          <mxGeometry x="-560" y="120" width="40" height="40" as="geometry" />
        </mxCell>
        <mxCell id="NEaU2xAnRH2WTIYvXyxO-22" value="" style="endArrow=none;html=1;rounded=0;strokeWidth=5;" edge="1" parent="1">
          <mxGeometry width="50" height="50" relative="1" as="geometry">
            <mxPoint x="-775" y="200" as="sourcePoint" />
            <mxPoint x="-305" y="200" as="targetPoint" />
          </mxGeometry>
        </mxCell>
        <mxCell id="NEaU2xAnRH2WTIYvXyxO-23" value="" style="endArrow=classic;html=1;rounded=0;exitX=0.5;exitY=1;exitDx=0;exitDy=0;" edge="1" parent="1" source="NEaU2xAnRH2WTIYvXyxO-19">
          <mxGeometry width="50" height="50" relative="1" as="geometry">
            <mxPoint x="-310" y="230" as="sourcePoint" />
            <mxPoint x="-540" y="200" as="targetPoint" />
          </mxGeometry>
        </mxCell>
        <mxCell id="NEaU2xAnRH2WTIYvXyxO-24" value="Select shipping method" style="rounded=0;whiteSpace=wrap;html=1;" vertex="1" parent="1">
          <mxGeometry x="-600" y="260" width="120" height="60" as="geometry" />
        </mxCell>
        <mxCell id="NEaU2xAnRH2WTIYvXyxO-25" value="Select payment method" style="rounded=0;whiteSpace=wrap;html=1;" vertex="1" parent="1">
          <mxGeometry x="-745" y="260" width="120" height="60" as="geometry" />
        </mxCell>
        <mxCell id="NEaU2xAnRH2WTIYvXyxO-26" value="" style="endArrow=classic;html=1;rounded=0;entryX=0.5;entryY=0;entryDx=0;entryDy=0;" edge="1" parent="1" target="NEaU2xAnRH2WTIYvXyxO-24">
          <mxGeometry width="50" height="50" relative="1" as="geometry">
            <mxPoint x="-540" y="200" as="sourcePoint" />
            <mxPoint x="-530" y="210" as="targetPoint" />
          </mxGeometry>
        </mxCell>
        <mxCell id="NEaU2xAnRH2WTIYvXyxO-27" value="" style="endArrow=classic;html=1;rounded=0;entryX=0.5;entryY=0;entryDx=0;entryDy=0;" edge="1" parent="1" target="NEaU2xAnRH2WTIYvXyxO-18">
          <mxGeometry width="50" height="50" relative="1" as="geometry">
            <mxPoint x="-395.24" y="200" as="sourcePoint" />
            <mxPoint x="-395.24" y="260" as="targetPoint" />
          </mxGeometry>
        </mxCell>
        <mxCell id="NEaU2xAnRH2WTIYvXyxO-28" value="" style="endArrow=classic;html=1;rounded=0;entryX=0.5;entryY=0;entryDx=0;entryDy=0;" edge="1" parent="1" target="NEaU2xAnRH2WTIYvXyxO-25">
          <mxGeometry width="50" height="50" relative="1" as="geometry">
            <mxPoint x="-685.24" y="200" as="sourcePoint" />
            <mxPoint x="-685" y="260" as="targetPoint" />
          </mxGeometry>
        </mxCell>
        <mxCell id="NEaU2xAnRH2WTIYvXyxO-29" value="" style="endArrow=classic;html=1;rounded=0;entryX=0.5;entryY=0;entryDx=0;entryDy=0;" edge="1" parent="1">
          <mxGeometry width="50" height="50" relative="1" as="geometry">
            <mxPoint x="-540" y="320" as="sourcePoint" />
            <mxPoint x="-540" y="380" as="targetPoint" />
          </mxGeometry>
        </mxCell>
        <mxCell id="NEaU2xAnRH2WTIYvXyxO-30" value="" style="endArrow=classic;html=1;rounded=0;entryX=0.5;entryY=0;entryDx=0;entryDy=0;" edge="1" parent="1">
          <mxGeometry width="50" height="50" relative="1" as="geometry">
            <mxPoint x="-395.24" y="320" as="sourcePoint" />
            <mxPoint x="-395" y="380" as="targetPoint" />
          </mxGeometry>
        </mxCell>
        <mxCell id="NEaU2xAnRH2WTIYvXyxO-31" value="" style="endArrow=classic;html=1;rounded=0;entryX=0.5;entryY=0;entryDx=0;entryDy=0;" edge="1" parent="1">
          <mxGeometry width="50" height="50" relative="1" as="geometry">
            <mxPoint x="-685.24" y="320" as="sourcePoint" />
            <mxPoint x="-685" y="380" as="targetPoint" />
          </mxGeometry>
        </mxCell>
        <mxCell id="NEaU2xAnRH2WTIYvXyxO-32" value="" style="endArrow=none;html=1;rounded=0;strokeWidth=5;" edge="1" parent="1">
          <mxGeometry width="50" height="50" relative="1" as="geometry">
            <mxPoint x="-775" y="380" as="sourcePoint" />
            <mxPoint x="-305" y="380" as="targetPoint" />
          </mxGeometry>
        </mxCell>
        <mxCell id="NEaU2xAnRH2WTIYvXyxO-33" value="" style="endArrow=classic;html=1;rounded=0;entryX=0.5;entryY=0;entryDx=0;entryDy=0;" edge="1" parent="1" target="NEaU2xAnRH2WTIYvXyxO-34">
          <mxGeometry width="50" height="50" relative="1" as="geometry">
            <mxPoint x="-540" y="380" as="sourcePoint" />
            <mxPoint x="-540.24" y="440" as="targetPoint" />
          </mxGeometry>
        </mxCell>
        <mxCell id="NEaU2xAnRH2WTIYvXyxO-34" value="Confirm the purchase" style="rounded=0;whiteSpace=wrap;html=1;" vertex="1" parent="1">
          <mxGeometry x="-600" y="440" width="120" height="60" as="geometry" />
        </mxCell>
        <mxCell id="NEaU2xAnRH2WTIYvXyxO-35" value="" style="endArrow=classic;html=1;rounded=0;exitX=0.5;exitY=1;exitDx=0;exitDy=0;entryX=0.5;entryY=0;entryDx=0;entryDy=0;" edge="1" parent="1" source="NEaU2xAnRH2WTIYvXyxO-34" target="NEaU2xAnRH2WTIYvXyxO-5">
          <mxGeometry width="50" height="50" relative="1" as="geometry">
            <mxPoint x="-540.24" y="510" as="sourcePoint" />
            <mxPoint x="-540" y="560" as="targetPoint" />
          </mxGeometry>
        </mxCell>
        <mxCell id="NEaU2xAnRH2WTIYvXyxO-36" value="" style="endArrow=classic;html=1;rounded=0;exitX=0.5;exitY=1;exitDx=0;exitDy=0;entryX=0.5;entryY=0;entryDx=0;entryDy=0;" edge="1" parent="1" source="NEaU2xAnRH2WTIYvXyxO-16" target="NEaU2xAnRH2WTIYvXyxO-37">
          <mxGeometry width="50" height="50" relative="1" as="geometry">
            <mxPoint x="-290" y="440" as="sourcePoint" />
            <mxPoint x="-120" y="681.6666666666666" as="targetPoint" />
          </mxGeometry>
        </mxCell>
        <mxCell id="NEaU2xAnRH2WTIYvXyxO-37" value="" style="rhombus;whiteSpace=wrap;html=1;" vertex="1" parent="1">
          <mxGeometry x="-140" y="680" width="40" height="40" as="geometry" />
        </mxCell>
        <mxCell id="NEaU2xAnRH2WTIYvXyxO-38" value="" style="endArrow=classic;html=1;rounded=0;exitX=1;exitY=0.5;exitDx=0;exitDy=0;entryX=0;entryY=0.5;entryDx=0;entryDy=0;" edge="1" parent="1" source="NEaU2xAnRH2WTIYvXyxO-37" target="NEaU2xAnRH2WTIYvXyxO-86">
          <mxGeometry width="50" height="50" relative="1" as="geometry">
            <mxPoint x="-110" y="750" as="sourcePoint" />
            <mxPoint x="170" y="1480" as="targetPoint" />
            <Array as="points">
              <mxPoint y="700" />
              <mxPoint y="1480" />
            </Array>
          </mxGeometry>
        </mxCell>
        <mxCell id="NEaU2xAnRH2WTIYvXyxO-39" value="[Data is correct]" style="edgeLabel;html=1;align=center;verticalAlign=middle;resizable=0;points=[];" vertex="1" connectable="0" parent="NEaU2xAnRH2WTIYvXyxO-38">
          <mxGeometry x="-0.5857" y="1" relative="1" as="geometry">
            <mxPoint x="9" y="-9" as="offset" />
          </mxGeometry>
        </mxCell>
        <mxCell id="NEaU2xAnRH2WTIYvXyxO-40" value="" style="endArrow=classic;html=1;rounded=0;exitX=0;exitY=0.5;exitDx=0;exitDy=0;entryX=0.5;entryY=0;entryDx=0;entryDy=0;" edge="1" parent="1" source="NEaU2xAnRH2WTIYvXyxO-37" target="NEaU2xAnRH2WTIYvXyxO-42">
          <mxGeometry width="50" height="50" relative="1" as="geometry">
            <mxPoint x="-90" y="710" as="sourcePoint" />
            <mxPoint x="-240" y="800" as="targetPoint" />
            <Array as="points">
              <mxPoint x="-240" y="700" />
            </Array>
          </mxGeometry>
        </mxCell>
        <mxCell id="NEaU2xAnRH2WTIYvXyxO-41" value="[Data is incorrect]" style="edgeLabel;html=1;align=center;verticalAlign=middle;resizable=0;points=[];" vertex="1" connectable="0" parent="NEaU2xAnRH2WTIYvXyxO-40">
          <mxGeometry x="-0.5857" y="1" relative="1" as="geometry">
            <mxPoint x="-9" y="-11" as="offset" />
          </mxGeometry>
        </mxCell>
        <mxCell id="NEaU2xAnRH2WTIYvXyxO-44" value="" style="edgeStyle=orthogonalEdgeStyle;rounded=0;orthogonalLoop=1;jettySize=auto;html=1;" edge="1" parent="1" source="NEaU2xAnRH2WTIYvXyxO-42" target="NEaU2xAnRH2WTIYvXyxO-43">
          <mxGeometry relative="1" as="geometry" />
        </mxCell>
        <mxCell id="NEaU2xAnRH2WTIYvXyxO-42" value="&lt;div&gt;Refuse to place the&lt;/div&gt;&lt;div&gt;order&lt;/div&gt;" style="rounded=0;whiteSpace=wrap;html=1;" vertex="1" parent="1">
          <mxGeometry x="-300" y="800" width="120" height="60" as="geometry" />
        </mxCell>
        <mxCell id="NEaU2xAnRH2WTIYvXyxO-43" value="&lt;div&gt;Display an error message&lt;/div&gt;" style="rounded=0;whiteSpace=wrap;html=1;" vertex="1" parent="1">
          <mxGeometry x="-300" y="920" width="120" height="60" as="geometry" />
        </mxCell>
        <mxCell id="NEaU2xAnRH2WTIYvXyxO-47" value="" style="edgeStyle=orthogonalEdgeStyle;rounded=0;orthogonalLoop=1;jettySize=auto;html=1;" edge="1" parent="1" source="NEaU2xAnRH2WTIYvXyxO-46" target="NEaU2xAnRH2WTIYvXyxO-16">
          <mxGeometry relative="1" as="geometry" />
        </mxCell>
        <mxCell id="NEaU2xAnRH2WTIYvXyxO-46" value="" style="rhombus;whiteSpace=wrap;html=1;" vertex="1" parent="1">
          <mxGeometry x="-140" y="410" width="40" height="40" as="geometry" />
        </mxCell>
        <mxCell id="NEaU2xAnRH2WTIYvXyxO-48" value="" style="endArrow=classic;html=1;rounded=0;exitX=0.5;exitY=1;exitDx=0;exitDy=0;entryX=0;entryY=0.5;entryDx=0;entryDy=0;" edge="1" parent="1" source="NEaU2xAnRH2WTIYvXyxO-43" target="NEaU2xAnRH2WTIYvXyxO-46">
          <mxGeometry width="50" height="50" relative="1" as="geometry">
            <mxPoint x="-350" y="950" as="sourcePoint" />
            <mxPoint x="-300" y="900" as="targetPoint" />
            <Array as="points">
              <mxPoint x="-240" y="1040" />
              <mxPoint x="-360" y="1040" />
              <mxPoint x="-360" y="430" />
            </Array>
          </mxGeometry>
        </mxCell>
        <mxCell id="NEaU2xAnRH2WTIYvXyxO-51" value="" style="edgeStyle=orthogonalEdgeStyle;rounded=0;orthogonalLoop=1;jettySize=auto;html=1;" edge="1" parent="1" source="NEaU2xAnRH2WTIYvXyxO-49" target="NEaU2xAnRH2WTIYvXyxO-50">
          <mxGeometry relative="1" as="geometry" />
        </mxCell>
        <mxCell id="NEaU2xAnRH2WTIYvXyxO-49" value="Make an offer" style="rounded=0;whiteSpace=wrap;html=1;" vertex="1" parent="1">
          <mxGeometry x="420" y="550" width="120" height="60" as="geometry" />
        </mxCell>
        <mxCell id="NEaU2xAnRH2WTIYvXyxO-63" style="edgeStyle=orthogonalEdgeStyle;rounded=0;orthogonalLoop=1;jettySize=auto;html=1;exitX=0.5;exitY=1;exitDx=0;exitDy=0;entryX=0.5;entryY=0;entryDx=0;entryDy=0;" edge="1" parent="1" source="NEaU2xAnRH2WTIYvXyxO-50" target="NEaU2xAnRH2WTIYvXyxO-58">
          <mxGeometry relative="1" as="geometry">
            <mxPoint x="480.20000000000005" y="800" as="targetPoint" />
          </mxGeometry>
        </mxCell>
        <mxCell id="NEaU2xAnRH2WTIYvXyxO-64" value="[Auction is over and&lt;br&gt;offer is overtaken]" style="edgeLabel;html=1;align=center;verticalAlign=middle;resizable=0;points=[];" vertex="1" connectable="0" parent="NEaU2xAnRH2WTIYvXyxO-63">
          <mxGeometry x="-0.0982" relative="1" as="geometry">
            <mxPoint y="-6" as="offset" />
          </mxGeometry>
        </mxCell>
        <mxCell id="NEaU2xAnRH2WTIYvXyxO-50" value="" style="rhombus;whiteSpace=wrap;html=1;" vertex="1" parent="1">
          <mxGeometry x="460" y="680" width="40" height="40" as="geometry" />
        </mxCell>
        <mxCell id="NEaU2xAnRH2WTIYvXyxO-54" value="" style="endArrow=classic;html=1;rounded=0;exitX=1;exitY=0.5;exitDx=0;exitDy=0;" edge="1" parent="1" source="NEaU2xAnRH2WTIYvXyxO-50" target="NEaU2xAnRH2WTIYvXyxO-83">
          <mxGeometry width="50" height="50" relative="1" as="geometry">
            <mxPoint x="280" y="630" as="sourcePoint" />
            <mxPoint x="680" y="800" as="targetPoint" />
            <Array as="points">
              <mxPoint x="680" y="700" />
            </Array>
          </mxGeometry>
        </mxCell>
        <mxCell id="NEaU2xAnRH2WTIYvXyxO-55" value="" style="endArrow=classic;html=1;rounded=0;exitX=0;exitY=0.5;exitDx=0;exitDy=0;entryX=0.5;entryY=0;entryDx=0;entryDy=0;" edge="1" parent="1" source="NEaU2xAnRH2WTIYvXyxO-50" target="NEaU2xAnRH2WTIYvXyxO-66">
          <mxGeometry width="50" height="50" relative="1" as="geometry">
            <mxPoint x="280" y="630" as="sourcePoint" />
            <mxPoint x="280" y="790" as="targetPoint" />
            <Array as="points">
              <mxPoint x="280" y="700" />
            </Array>
          </mxGeometry>
        </mxCell>
        <mxCell id="NEaU2xAnRH2WTIYvXyxO-56" value="[Auction is over and&lt;br&gt;&amp;nbsp;is won]" style="text;html=1;align=center;verticalAlign=middle;resizable=0;points=[];autosize=1;strokeColor=none;fillColor=none;" vertex="1" parent="1">
          <mxGeometry x="305" y="655" width="130" height="40" as="geometry" />
        </mxCell>
        <mxCell id="NEaU2xAnRH2WTIYvXyxO-57" value="[The auction is not over and&lt;br&gt;&amp;nbsp;the user wants to bid again]" style="text;html=1;align=center;verticalAlign=middle;resizable=0;points=[];autosize=1;strokeColor=none;fillColor=none;" vertex="1" parent="1">
          <mxGeometry x="500" y="655" width="170" height="40" as="geometry" />
        </mxCell>
        <mxCell id="NEaU2xAnRH2WTIYvXyxO-88" style="edgeStyle=orthogonalEdgeStyle;rounded=0;orthogonalLoop=1;jettySize=auto;html=1;exitX=0.5;exitY=1;exitDx=0;exitDy=0;entryX=1;entryY=0.5;entryDx=0;entryDy=0;" edge="1" parent="1" source="NEaU2xAnRH2WTIYvXyxO-58" target="NEaU2xAnRH2WTIYvXyxO-86">
          <mxGeometry relative="1" as="geometry" />
        </mxCell>
        <mxCell id="NEaU2xAnRH2WTIYvXyxO-58" value="" style="rhombus;whiteSpace=wrap;html=1;" vertex="1" parent="1">
          <mxGeometry x="460" y="1110" width="40" height="40" as="geometry" />
        </mxCell>
        <mxCell id="NEaU2xAnRH2WTIYvXyxO-65" value="* Enter the data for the purchase&lt;br&gt;" style="rounded=0;whiteSpace=wrap;html=1;" vertex="1" parent="1">
          <mxGeometry x="220" y="870" width="120" height="60" as="geometry" />
        </mxCell>
        <mxCell id="NEaU2xAnRH2WTIYvXyxO-67" value="" style="edgeStyle=orthogonalEdgeStyle;rounded=0;orthogonalLoop=1;jettySize=auto;html=1;" edge="1" parent="1" source="NEaU2xAnRH2WTIYvXyxO-66" target="NEaU2xAnRH2WTIYvXyxO-65">
          <mxGeometry relative="1" as="geometry" />
        </mxCell>
        <mxCell id="NEaU2xAnRH2WTIYvXyxO-66" value="" style="rhombus;whiteSpace=wrap;html=1;" vertex="1" parent="1">
          <mxGeometry x="260" y="760" width="40" height="40" as="geometry" />
        </mxCell>
        <mxCell id="NEaU2xAnRH2WTIYvXyxO-69" value="" style="endArrow=classic;html=1;rounded=0;exitX=0.5;exitY=1;exitDx=0;exitDy=0;entryX=0.5;entryY=0;entryDx=0;entryDy=0;" edge="1" source="NEaU2xAnRH2WTIYvXyxO-65" target="NEaU2xAnRH2WTIYvXyxO-70" parent="1">
          <mxGeometry width="50" height="50" relative="1" as="geometry">
            <mxPoint x="280" y="940" as="sourcePoint" />
            <mxPoint x="280" y="1011.6666666666665" as="targetPoint" />
          </mxGeometry>
        </mxCell>
        <mxCell id="NEaU2xAnRH2WTIYvXyxO-70" value="" style="rhombus;whiteSpace=wrap;html=1;" vertex="1" parent="1">
          <mxGeometry x="260" y="1010" width="40" height="40" as="geometry" />
        </mxCell>
        <mxCell id="NEaU2xAnRH2WTIYvXyxO-71" value="" style="endArrow=classic;html=1;rounded=0;exitX=1;exitY=0.5;exitDx=0;exitDy=0;entryX=0;entryY=0.5;entryDx=0;entryDy=0;" edge="1" source="NEaU2xAnRH2WTIYvXyxO-70" parent="1" target="NEaU2xAnRH2WTIYvXyxO-58">
          <mxGeometry width="50" height="50" relative="1" as="geometry">
            <mxPoint x="290" y="1080" as="sourcePoint" />
            <mxPoint x="320" y="1190" as="targetPoint" />
            <Array as="points">
              <mxPoint x="360" y="1030" />
              <mxPoint x="360" y="1130" />
            </Array>
          </mxGeometry>
        </mxCell>
        <mxCell id="NEaU2xAnRH2WTIYvXyxO-72" value="[Data is correct]" style="edgeLabel;html=1;align=center;verticalAlign=middle;resizable=0;points=[];" vertex="1" connectable="0" parent="NEaU2xAnRH2WTIYvXyxO-71">
          <mxGeometry x="-0.5857" y="1" relative="1" as="geometry">
            <mxPoint x="-14" y="-9" as="offset" />
          </mxGeometry>
        </mxCell>
        <mxCell id="NEaU2xAnRH2WTIYvXyxO-73" value="" style="endArrow=classic;html=1;rounded=0;exitX=0;exitY=0.5;exitDx=0;exitDy=0;entryX=0.5;entryY=0;entryDx=0;entryDy=0;" edge="1" source="NEaU2xAnRH2WTIYvXyxO-70" target="NEaU2xAnRH2WTIYvXyxO-76" parent="1">
          <mxGeometry width="50" height="50" relative="1" as="geometry">
            <mxPoint x="310" y="1040" as="sourcePoint" />
            <mxPoint x="160" y="1130" as="targetPoint" />
            <Array as="points">
              <mxPoint x="160" y="1030" />
            </Array>
          </mxGeometry>
        </mxCell>
        <mxCell id="NEaU2xAnRH2WTIYvXyxO-74" value="[Data is incorrect]" style="edgeLabel;html=1;align=center;verticalAlign=middle;resizable=0;points=[];" vertex="1" connectable="0" parent="NEaU2xAnRH2WTIYvXyxO-73">
          <mxGeometry x="-0.5857" y="1" relative="1" as="geometry">
            <mxPoint x="-9" y="-11" as="offset" />
          </mxGeometry>
        </mxCell>
        <mxCell id="NEaU2xAnRH2WTIYvXyxO-75" value="" style="edgeStyle=orthogonalEdgeStyle;rounded=0;orthogonalLoop=1;jettySize=auto;html=1;" edge="1" source="NEaU2xAnRH2WTIYvXyxO-76" target="NEaU2xAnRH2WTIYvXyxO-77" parent="1">
          <mxGeometry relative="1" as="geometry" />
        </mxCell>
        <mxCell id="NEaU2xAnRH2WTIYvXyxO-76" value="&lt;div&gt;Refuse to place the&lt;/div&gt;&lt;div&gt;order&lt;/div&gt;" style="rounded=0;whiteSpace=wrap;html=1;" vertex="1" parent="1">
          <mxGeometry x="100" y="1080" width="120" height="60" as="geometry" />
        </mxCell>
        <mxCell id="NEaU2xAnRH2WTIYvXyxO-77" value="&lt;div&gt;Display an error message&lt;/div&gt;" style="rounded=0;whiteSpace=wrap;html=1;" vertex="1" parent="1">
          <mxGeometry x="100" y="1169" width="120" height="60" as="geometry" />
        </mxCell>
        <mxCell id="NEaU2xAnRH2WTIYvXyxO-79" value="" style="endArrow=classic;html=1;rounded=0;exitX=0.5;exitY=1;exitDx=0;exitDy=0;entryX=0;entryY=0.5;entryDx=0;entryDy=0;" edge="1" source="NEaU2xAnRH2WTIYvXyxO-77" parent="1" target="NEaU2xAnRH2WTIYvXyxO-66">
          <mxGeometry width="50" height="50" relative="1" as="geometry">
            <mxPoint x="50" y="1280" as="sourcePoint" />
            <mxPoint x="260" y="760" as="targetPoint" />
            <Array as="points">
              <mxPoint x="160" y="1280" />
              <mxPoint x="80" y="1280" />
              <mxPoint x="80" y="780" />
              <mxPoint x="170" y="780" />
            </Array>
          </mxGeometry>
        </mxCell>
        <mxCell id="NEaU2xAnRH2WTIYvXyxO-82" value="" style="edgeStyle=orthogonalEdgeStyle;rounded=0;orthogonalLoop=1;jettySize=auto;html=1;" edge="1" parent="1" source="NEaU2xAnRH2WTIYvXyxO-80" target="NEaU2xAnRH2WTIYvXyxO-49">
          <mxGeometry relative="1" as="geometry" />
        </mxCell>
        <mxCell id="NEaU2xAnRH2WTIYvXyxO-80" value="" style="rhombus;whiteSpace=wrap;html=1;" vertex="1" parent="1">
          <mxGeometry x="460" y="400" width="40" height="40" as="geometry" />
        </mxCell>
        <mxCell id="NEaU2xAnRH2WTIYvXyxO-84" style="edgeStyle=orthogonalEdgeStyle;rounded=0;orthogonalLoop=1;jettySize=auto;html=1;exitX=0.5;exitY=1;exitDx=0;exitDy=0;entryX=1;entryY=0.5;entryDx=0;entryDy=0;" edge="1" parent="1" source="NEaU2xAnRH2WTIYvXyxO-83" target="NEaU2xAnRH2WTIYvXyxO-80">
          <mxGeometry relative="1" as="geometry">
            <Array as="points">
              <mxPoint x="680" y="900" />
              <mxPoint x="770" y="900" />
              <mxPoint x="770" y="420" />
            </Array>
          </mxGeometry>
        </mxCell>
        <mxCell id="NEaU2xAnRH2WTIYvXyxO-83" value="" style="shape=collate;html=1;" vertex="1" parent="1">
          <mxGeometry x="660" y="780" width="40" height="40" as="geometry" />
        </mxCell>
        <mxCell id="NEaU2xAnRH2WTIYvXyxO-85" value="Wait 30&lt;br&gt;seconds" style="text;html=1;align=center;verticalAlign=middle;resizable=0;points=[];autosize=1;strokeColor=none;fillColor=none;" vertex="1" parent="1">
          <mxGeometry x="590" y="780" width="70" height="40" as="geometry" />
        </mxCell>
        <mxCell id="NEaU2xAnRH2WTIYvXyxO-91" value="" style="edgeStyle=orthogonalEdgeStyle;rounded=0;orthogonalLoop=1;jettySize=auto;html=1;" edge="1" parent="1" source="NEaU2xAnRH2WTIYvXyxO-86" target="NEaU2xAnRH2WTIYvXyxO-90">
          <mxGeometry relative="1" as="geometry" />
        </mxCell>
        <mxCell id="NEaU2xAnRH2WTIYvXyxO-86" value="" style="rhombus;whiteSpace=wrap;html=1;" vertex="1" parent="1">
          <mxGeometry x="220" y="1460" width="40" height="40" as="geometry" />
        </mxCell>
        <mxCell id="NEaU2xAnRH2WTIYvXyxO-90" value="" style="ellipse;html=1;shape=endState;fillColor=#000000;strokeColor=#000000;" vertex="1" parent="1">
          <mxGeometry x="220" y="1610" width="40" height="40" as="geometry" />
        </mxCell>
      </root>
    </mxGraphModel>
  </diagram>
</mxfile>
